<svg xmlns="http://www.w3.org/2000/svg" viewBox="0 0 128 128" shape-rendering="crispEdges">
  <!-- Medieval grassy plain - tileable terrain texture -->
  <!-- Base grass -->
  <rect x="0" y="0" width="128" height="128" fill="#4A8A30"/>

  <!-- Grass variation patches (darker) -->
  <rect x="4" y="8" width="6" height="4" fill="#3E7A28"/>
  <rect x="24" y="4" width="8" height="3" fill="#3E7A28"/>
  <rect x="50" y="12" width="5" height="5" fill="#3E7A28"/>
  <rect x="80" y="6" width="7" height="4" fill="#3E7A28"/>
  <rect x="108" y="10" width="6" height="3" fill="#3E7A28"/>
  <rect x="16" y="28" width="4" height="4" fill="#3E7A28"/>
  <rect x="44" y="32" width="6" height="3" fill="#3E7A28"/>
  <rect x="72" y="26" width="5" height="5" fill="#3E7A28"/>
  <rect x="96" y="30" width="7" height="3" fill="#3E7A28"/>
  <rect x="6" y="52" width="5" height="4" fill="#3E7A28"/>
  <rect x="36" y="56" width="6" height="3" fill="#3E7A28"/>
  <rect x="60" y="50" width="4" height="4" fill="#3E7A28"/>
  <rect x="84" y="54" width="6" height="3" fill="#3E7A28"/>
  <rect x="112" y="48" width="5" height="4" fill="#3E7A28"/>
  <rect x="20" y="72" width="6" height="4" fill="#3E7A28"/>
  <rect x="48" y="76" width="5" height="3" fill="#3E7A28"/>
  <rect x="76" y="70" width="7" height="4" fill="#3E7A28"/>
  <rect x="100" y="74" width="5" height="3" fill="#3E7A28"/>
  <rect x="8" y="96" width="5" height="4" fill="#3E7A28"/>
  <rect x="40" y="100" width="6" height="3" fill="#3E7A28"/>
  <rect x="64" y="94" width="4" height="5" fill="#3E7A28"/>
  <rect x="88" y="98" width="6" height="3" fill="#3E7A28"/>
  <rect x="116" y="92" width="5" height="4" fill="#3E7A28"/>
  <rect x="28" y="116" width="5" height="3" fill="#3E7A28"/>
  <rect x="56" y="118" width="6" height="4" fill="#3E7A28"/>
  <rect x="92" y="114" width="4" height="4" fill="#3E7A28"/>

  <!-- Lighter grass patches -->
  <rect x="14" y="14" width="4" height="3" fill="#58A038"/>
  <rect x="38" y="18" width="3" height="3" fill="#58A038"/>
  <rect x="66" y="8" width="4" height="3" fill="#58A038"/>
  <rect x="94" y="16" width="5" height="2" fill="#58A038"/>
  <rect x="10" y="38" width="3" height="3" fill="#58A038"/>
  <rect x="54" y="40" width="4" height="2" fill="#58A038"/>
  <rect x="78" y="36" width="3" height="3" fill="#58A038"/>
  <rect x="30" y="62" width="4" height="2" fill="#58A038"/>
  <rect x="68" y="58" width="3" height="3" fill="#58A038"/>
  <rect x="104" y="64" width="4" height="2" fill="#58A038"/>
  <rect x="18" y="82" width="3" height="3" fill="#58A038"/>
  <rect x="46" y="86" width="4" height="2" fill="#58A038"/>
  <rect x="82" y="80" width="3" height="3" fill="#58A038"/>
  <rect x="118" y="84" width="4" height="2" fill="#58A038"/>
  <rect x="12" y="108" width="4" height="3" fill="#58A038"/>
  <rect x="52" y="110" width="3" height="2" fill="#58A038"/>
  <rect x="74" y="104" width="4" height="3" fill="#58A038"/>
  <rect x="106" y="108" width="3" height="3" fill="#58A038"/>

  <!-- Small flowers/details -->
  <rect x="22" y="22" width="1" height="1" fill="#E8D040"/>
  <rect x="58" y="30" width="1" height="1" fill="#E8D040"/>
  <rect x="86" y="18" width="1" height="1" fill="#E8D040"/>
  <rect x="110" y="42" width="1" height="1" fill="#E8D040"/>
  <rect x="34" y="48" width="1" height="1" fill="#E0E0E0"/>
  <rect x="70" y="62" width="1" height="1" fill="#E8D040"/>
  <rect x="98" y="56" width="1" height="1" fill="#E0E0E0"/>
  <rect x="14" y="66" width="1" height="1" fill="#E8D040"/>
  <rect x="42" y="78" width="1" height="1" fill="#E0E0E0"/>
  <rect x="90" y="88" width="1" height="1" fill="#E8D040"/>
  <rect x="26" y="100" width="1" height="1" fill="#E0E0E0"/>
  <rect x="62" y="106" width="1" height="1" fill="#E8D040"/>
  <rect x="102" y="98" width="1" height="1" fill="#E0E0E0"/>
  <rect x="120" y="116" width="1" height="1" fill="#E8D040"/>
  <rect x="36" y="122" width="1" height="1" fill="#E8D040"/>

  <!-- Pebbles/small stones -->
  <rect x="32" y="10" width="2" height="1" fill="#8A8A7A"/>
  <rect x="88" y="44" width="2" height="1" fill="#8A8A7A"/>
  <rect x="16" y="54" width="1" height="1" fill="#8A8A7A"/>
  <rect x="50" y="68" width="2" height="1" fill="#8A8A7A"/>
  <rect x="104" y="82" width="1" height="1" fill="#8A8A7A"/>
  <rect x="30" y="90" width="2" height="1" fill="#8A8A7A"/>
  <rect x="72" y="120" width="2" height="1" fill="#8A8A7A"/>

  <!-- Dirt patches -->
  <rect x="42" y="22" width="3" height="2" fill="#6A7A38"/>
  <rect x="78" y="46" width="4" height="2" fill="#6A7A38"/>
  <rect x="24" y="68" width="3" height="2" fill="#6A7A38"/>
  <rect x="58" y="84" width="3" height="2" fill="#6A7A38"/>
  <rect x="96" y="106" width="4" height="2" fill="#6A7A38"/>
  <rect x="10" y="118" width="3" height="2" fill="#6A7A38"/>
</svg>
