<svg xmlns="http://www.w3.org/2000/svg" viewBox="0 0 64 80" shape-rendering="crispEdges">
  <!-- 3D Isometric medieval storehouse/warehouse -->

  <!-- Tall roof (3D wooden shingle) -->
  <polygon points="30,6 4,24 30,34 56,24" fill="#7A5A30"/>
  <!-- Roof left shadow -->
  <polygon points="4,24 4,28 30,38 30,34" fill="#5A3A20"/>
  <!-- Roof right lit -->
  <polygon points="56,24 56,28 30,38 30,34" fill="#6A4A28"/>
  <!-- Roof ridge -->
  <rect x="28" y="6" width="4" height="1" fill="#8B6A40"/>
  <!-- Roof plank lines -->
  <line x1="8" y1="25" x2="29" y2="35" stroke="#6A4A28" stroke-width="1"/>
  <line x1="14" y1="24" x2="29" y2="32" stroke="#6A4A28" stroke-width="1"/>
  <line x1="32" y1="35" x2="52" y2="25" stroke="#7A5830" stroke-width="1"/>
  <line x1="32" y1="32" x2="48" y2="24" stroke="#7A5830" stroke-width="1"/>

  <!-- Attic window -->
  <polygon points="30,16 22,22 30,26 38,22" fill="#4A3020"/>
  <polygon points="30,18 25,22 30,24 35,22" fill="#FFE8A0" opacity="0.4"/>

  <!-- Front wall (wood planks) -->
  <rect x="6" y="28" width="24" height="24" fill="#B08050"/>
  <rect x="6" y="28" width="24" height="1" fill="#9A7040"/>
  <!-- Horizontal planks -->
  <rect x="6" y="32" width="24" height="1" fill="#9A7040"/>
  <rect x="6" y="36" width="24" height="1" fill="#9A7040"/>
  <rect x="6" y="40" width="24" height="1" fill="#9A7040"/>
  <rect x="6" y="44" width="24" height="1" fill="#9A7040"/>

  <!-- Side wall (darker) -->
  <polygon points="30,28 54,24 54,48 30,52" fill="#8B6530"/>
  <line x1="30" y1="33" x2="54" y2="29" stroke="#7A5528" stroke-width="1"/>
  <line x1="30" y1="38" x2="54" y2="34" stroke="#7A5528" stroke-width="1"/>
  <line x1="30" y1="43" x2="54" y2="39" stroke="#7A5528" stroke-width="1"/>

  <!-- Large double doors (front) -->
  <rect x="10" y="34" width="16" height="18" fill="#6B4226"/>
  <rect x="10" y="34" width="16" height="2" fill="#5A3620"/>
  <!-- Door split -->
  <rect x="18" y="34" width="1" height="18" fill="#4A3020"/>
  <!-- Door cross beams -->
  <rect x="10" y="40" width="8" height="1" fill="#5A3620"/>
  <rect x="19" y="40" width="7" height="1" fill="#5A3620"/>
  <!-- Door handles -->
  <rect x="16" y="42" width="1" height="2" fill="#D4A020"/>
  <rect x="20" y="42" width="1" height="2" fill="#D4A020"/>
  <!-- Door hinges -->
  <rect x="10" y="36" width="2" height="1" fill="#505050"/>
  <rect x="10" y="44" width="2" height="1" fill="#505050"/>
  <rect x="25" y="36" width="1" height="1" fill="#505050"/>
  <rect x="25" y="44" width="1" height="1" fill="#505050"/>

  <!-- Side window -->
  <rect x="36" y="30" width="5" height="5" fill="#88C8E8"/>
  <rect x="36" y="30" width="5" height="1" fill="#5A3620"/>
  <rect x="36" y="34" width="5" height="1" fill="#5A3620"/>
  <rect x="36" y="30" width="1" height="5" fill="#5A3620"/>
  <rect x="40" y="30" width="1" height="5" fill="#5A3620"/>
  <rect x="38" y="30" width="1" height="5" fill="#5A3620"/>

  <!-- Support beams -->
  <rect x="6" y="28" width="2" height="24" fill="#6B4226"/>
  <rect x="28" y="28" width="2" height="24" fill="#6B4226"/>

  <!-- Foundation (stone) -->
  <rect x="4" y="50" width="26" height="4" fill="#707070"/>
  <polygon points="30,50 54,46 54,50 30,54" fill="#606060"/>
  <rect x="4" y="50" width="26" height="1" fill="#808080"/>

  <!-- Barrels (3D, in front) -->
  <rect x="0" y="44" width="5" height="7" fill="#8B6914"/>
  <rect x="0" y="44" width="5" height="1" fill="#9A7824"/>
  <rect x="0" y="47" width="5" height="1" fill="#7A5A10"/>
  <rect x="1" y="45" width="3" height="5" fill="#A08020"/>
  <!-- Second barrel -->
  <rect x="55" y="42" width="5" height="7" fill="#8B6914"/>
  <rect x="55" y="42" width="5" height="1" fill="#9A7824"/>
  <rect x="55" y="45" width="5" height="1" fill="#7A5A10"/>
  <rect x="56" y="43" width="3" height="5" fill="#A08020"/>

  <!-- Crate stack -->
  <rect x="56" y="36" width="5" height="5" fill="#A08050"/>
  <rect x="56" y="36" width="5" height="1" fill="#B09060"/>
  <rect x="58" y="37" width="1" height="4" fill="#907040"/>
  <rect x="57" y="32" width="4" height="4" fill="#A08050"/>
  <rect x="57" y="32" width="4" height="1" fill="#B09060"/>
</svg>
